<mxfile host="app.diagrams.net" modified="2024-04-24T21:46:31.716Z" agent="Mozilla/5.0 (Macintosh; Intel Mac OS X 10_15_7) AppleWebKit/605.1.15 (KHTML, like Gecko) Version/17.3.1 Safari/605.1.15" etag="AcULjEWFt2elMm38gH2g" version="24.3.0" type="github">
  <diagram id="C5RBs43oDa-KdzZeNtuy" name="Page-1">
    <mxGraphModel dx="1026" dy="772" grid="1" gridSize="10" guides="1" tooltips="1" connect="1" arrows="1" fold="1" page="1" pageScale="1" pageWidth="827" pageHeight="1169" math="0" shadow="0">
      <root>
        <mxCell id="WIyWlLk6GJQsqaUBKTNV-0" />
        <mxCell id="WIyWlLk6GJQsqaUBKTNV-1" parent="WIyWlLk6GJQsqaUBKTNV-0" />
        <mxCell id="94vxdjdhh1FSFLTBfFWY-0" value="" style="rounded=0;html=1;jettySize=auto;orthogonalLoop=1;fontSize=11;endArrow=block;endFill=0;endSize=8;strokeWidth=1;shadow=0;labelBackgroundColor=none;edgeStyle=orthogonalEdgeStyle;" edge="1" parent="WIyWlLk6GJQsqaUBKTNV-1" source="94vxdjdhh1FSFLTBfFWY-1" target="94vxdjdhh1FSFLTBfFWY-4">
          <mxGeometry relative="1" as="geometry" />
        </mxCell>
        <mxCell id="94vxdjdhh1FSFLTBfFWY-1" value="Initialise" style="rounded=1;whiteSpace=wrap;html=1;fontSize=12;glass=0;strokeWidth=1;shadow=0;" vertex="1" parent="WIyWlLk6GJQsqaUBKTNV-1">
          <mxGeometry x="181" y="170" width="120" height="40" as="geometry" />
        </mxCell>
        <mxCell id="94vxdjdhh1FSFLTBfFWY-2" value="Not&lt;div&gt;Exist&lt;/div&gt;" style="rounded=0;html=1;jettySize=auto;orthogonalLoop=1;fontSize=11;endArrow=block;endFill=0;endSize=8;strokeWidth=1;shadow=0;labelBackgroundColor=none;edgeStyle=orthogonalEdgeStyle;align=right;" edge="1" parent="WIyWlLk6GJQsqaUBKTNV-1" source="94vxdjdhh1FSFLTBfFWY-4">
          <mxGeometry x="0.05" y="-11" relative="1" as="geometry">
            <mxPoint as="offset" />
            <mxPoint x="241" y="409" as="targetPoint" />
          </mxGeometry>
        </mxCell>
        <mxCell id="94vxdjdhh1FSFLTBfFWY-3" value="Exists" style="rounded=0;html=1;jettySize=auto;orthogonalLoop=1;fontSize=11;endArrow=block;endFill=0;endSize=8;strokeWidth=1;shadow=0;labelBackgroundColor=none;entryX=0;entryY=0.5;entryDx=0;entryDy=0;exitX=1;exitY=0.5;exitDx=0;exitDy=0;" edge="1" parent="WIyWlLk6GJQsqaUBKTNV-1" source="94vxdjdhh1FSFLTBfFWY-4" target="94vxdjdhh1FSFLTBfFWY-5">
          <mxGeometry y="10" relative="1" as="geometry">
            <mxPoint as="offset" />
          </mxGeometry>
        </mxCell>
        <mxCell id="94vxdjdhh1FSFLTBfFWY-4" value="Check&amp;nbsp;&lt;div&gt;UserDefatuls&lt;div&gt;with unique key&amp;nbsp;&lt;/div&gt;&lt;div&gt;to see if value&lt;/div&gt;&lt;div&gt;exists &amp;nbsp;&lt;/div&gt;&lt;/div&gt;" style="rhombus;whiteSpace=wrap;html=1;shadow=0;fontFamily=Helvetica;fontSize=12;align=center;strokeWidth=1;spacing=6;spacingTop=-4;" vertex="1" parent="WIyWlLk6GJQsqaUBKTNV-1">
          <mxGeometry x="161" y="249" width="160" height="120" as="geometry" />
        </mxCell>
        <mxCell id="94vxdjdhh1FSFLTBfFWY-5" value="Retrieve and save the data in VM for display" style="rounded=1;whiteSpace=wrap;html=1;fontSize=12;glass=0;strokeWidth=1;shadow=0;" vertex="1" parent="WIyWlLk6GJQsqaUBKTNV-1">
          <mxGeometry x="451" y="284" width="162" height="50" as="geometry" />
        </mxCell>
        <mxCell id="94vxdjdhh1FSFLTBfFWY-6" value="" style="rounded=0;html=1;jettySize=auto;orthogonalLoop=1;fontSize=11;endArrow=block;endFill=0;endSize=8;strokeWidth=1;shadow=0;labelBackgroundColor=none;edgeStyle=orthogonalEdgeStyle;entryX=0.5;entryY=0;entryDx=0;entryDy=0;" edge="1" parent="WIyWlLk6GJQsqaUBKTNV-1" source="94vxdjdhh1FSFLTBfFWY-14" target="94vxdjdhh1FSFLTBfFWY-11">
          <mxGeometry x="-0.0244" y="30" relative="1" as="geometry">
            <mxPoint as="offset" />
            <mxPoint x="241" y="571" as="targetPoint" />
            <mxPoint x="241" y="530" as="sourcePoint" />
          </mxGeometry>
        </mxCell>
        <mxCell id="94vxdjdhh1FSFLTBfFWY-9" style="edgeStyle=orthogonalEdgeStyle;rounded=0;orthogonalLoop=1;jettySize=auto;html=1;exitX=0.5;exitY=1;exitDx=0;exitDy=0;entryX=0.5;entryY=0;entryDx=0;entryDy=0;endArrow=block;endFill=0;" edge="1" parent="WIyWlLk6GJQsqaUBKTNV-1" source="94vxdjdhh1FSFLTBfFWY-10" target="94vxdjdhh1FSFLTBfFWY-1">
          <mxGeometry relative="1" as="geometry" />
        </mxCell>
        <mxCell id="94vxdjdhh1FSFLTBfFWY-10" value="Create ViewModel instance" style="rounded=1;whiteSpace=wrap;html=1;fontSize=12;glass=0;strokeWidth=1;shadow=0;" vertex="1" parent="WIyWlLk6GJQsqaUBKTNV-1">
          <mxGeometry x="181" y="90" width="120" height="40" as="geometry" />
        </mxCell>
        <mxCell id="94vxdjdhh1FSFLTBfFWY-11" value="View uses VM&#39;s data as source of truth" style="rounded=1;whiteSpace=wrap;html=1;fontSize=12;glass=0;strokeWidth=1;shadow=0;" vertex="1" parent="WIyWlLk6GJQsqaUBKTNV-1">
          <mxGeometry x="159" y="520" width="162" height="60" as="geometry" />
        </mxCell>
        <mxCell id="94vxdjdhh1FSFLTBfFWY-13" value="" style="endArrow=block;html=1;rounded=0;exitX=0.5;exitY=1;exitDx=0;exitDy=0;entryX=1;entryY=0.5;entryDx=0;entryDy=0;edgeStyle=orthogonalEdgeStyle;endFill=0;" edge="1" parent="WIyWlLk6GJQsqaUBKTNV-1" source="94vxdjdhh1FSFLTBfFWY-5" target="94vxdjdhh1FSFLTBfFWY-11">
          <mxGeometry width="50" height="50" relative="1" as="geometry">
            <mxPoint x="390" y="420" as="sourcePoint" />
            <mxPoint x="440" y="370" as="targetPoint" />
            <Array as="points">
              <mxPoint x="532" y="550" />
            </Array>
          </mxGeometry>
        </mxCell>
        <mxCell id="94vxdjdhh1FSFLTBfFWY-14" value="Use PortalScraper to scrape the latest data" style="rounded=1;whiteSpace=wrap;html=1;fontSize=12;glass=0;strokeWidth=1;shadow=0;" vertex="1" parent="WIyWlLk6GJQsqaUBKTNV-1">
          <mxGeometry x="159" y="410" width="162" height="60" as="geometry" />
        </mxCell>
      </root>
    </mxGraphModel>
  </diagram>
</mxfile>
